HIERARCHY
ROOT hip
{
  OFFSET 0 0 0
  CHANNELS 6 Xposition Yposition Zposition Zrotation Yrotation Xrotation
  JOINT abdomen
  {
    OFFSET 0 20.6881 -0.73152
    CHANNELS 3 Zrotation Xrotation Yrotation
    JOINT chest
    {
      OFFSET 0 11.7043 -0.48768
      CHANNELS 3 Zrotation Xrotation Yrotation
      JOINT neck
      {
        OFFSET 0 22.1894 -2.19456
        CHANNELS 3 Zrotation Xrotation Yrotation
        JOINT head
        {
          OFFSET -0.24384 7.07133 1.2192
          CHANNELS 3 Zrotation Xrotation Yrotation
          JOINT leftEye
          {
            OFFSET 4.14528 8.04674 8.04672
            CHANNELS 3 Zrotation Xrotation Yrotation
            End Site
            {
              OFFSET 1 0 0
            }
          }
          JOINT rightEye
          {
            OFFSET -3.6576 8.04674 8.04672
            CHANNELS 3 Zrotation Xrotation Yrotation
            End Site
            {
              OFFSET 1 0 0
            }
          }
        }
      }
      JOINT rCollar
      {
        OFFSET -2.68224 19.2634 -4.8768
        CHANNELS 3 Zrotation Xrotation Yrotation
        JOINT rShldr
        {
          OFFSET -8.77824 -1.95073 1.46304
          CHANNELS 3 Zrotation Xrotation Yrotation
          JOINT rForeArm
          {
            OFFSET -28.1742 -1.7115 0.48768
            CHANNELS 3 Zrotation Xrotation Yrotation
            JOINT rHand
            {
              OFFSET -22.5879 0.773209 7.07136
              CHANNELS 3 Zrotation Xrotation Yrotation
              JOINT rThumb1
              {
                OFFSET -1.2192 -0.487915 3.41376
                CHANNELS 3 Zrotation Xrotation Yrotation
                JOINT rThumb2
                {
                  OFFSET -3.37035 -0.52449 3.41376
                  CHANNELS 3 Zrotation Xrotation Yrotation
                  End Site
                  {
                    OFFSET -1.78271 -1.18214 1.43049
                  }
                }
              }
              JOINT rIndex1
              {
                OFFSET -7.75947 0.938293 5.60832
                CHANNELS 3 Zrotation Xrotation Yrotation
                JOINT rIndex2
                {
                  OFFSET -2.54057 -0.884171 1.56538
                  CHANNELS 3 Zrotation Xrotation Yrotation
                  End Site
                  {
                    OFFSET -1.62519 -0.234802 1.16502
                  }
                }
              }
              JOINT rMid1
              {
                OFFSET -8.24714 1.18213 3.41376
                CHANNELS 3 Zrotation Xrotation Yrotation
                JOINT rMid2
                {
                  OFFSET -3.10165 -0.590103 1.0647
                  CHANNELS 3 Zrotation Xrotation Yrotation
                  End Site
                  {
                    OFFSET -2.48547 -0.328903 0.83742
                  }
                }
              }
              JOINT rRing1
              {
                OFFSET -8.82822 0.546677 1.51678
                CHANNELS 3 Zrotation Xrotation Yrotation
                JOINT rRing2
                {
                  OFFSET -2.60934 -0.819778 -0.0198488
                  CHANNELS 3 Zrotation Xrotation Yrotation
                  End Site
                  {
                    OFFSET -2.33842 -0.294052 0.168128
                  }
                }
              }
              JOINT rPinky1
              {
                OFFSET -8.27202 -0.0477905 -0.4584
                CHANNELS 3 Zrotation Xrotation Yrotation
                JOINT rPinky2
                {
                  OFFSET -1.82734 -0.647385 -0.700984
                  CHANNELS 3 Zrotation Xrotation Yrotation
                  End Site
                  {
                    OFFSET -1.69225 -0.51767 -0.607171
                  }
                }
              }
            }
          }
        }
      }
      JOINT lCollar
      {
        OFFSET 2.68224 19.2634 -4.8768
        CHANNELS 3 Zrotation Xrotation Yrotation
        JOINT lShldr
        {
          OFFSET 8.77824 -1.95073 1.46304
          CHANNELS 3 Zrotation Xrotation Yrotation
          JOINT lForeArm
          {
            OFFSET 28.1742 -1.7115 0.48768
            CHANNELS 3 Zrotation Xrotation Yrotation
            JOINT lHand
            {
              OFFSET 22.5879 0.773209 7.07136
              CHANNELS 3 Zrotation Xrotation Yrotation
              JOINT lThumb1
              {
                OFFSET 1.2192 -0.487915 3.41376
                CHANNELS 3 Zrotation Xrotation Yrotation
                JOINT lThumb2
                {
                  OFFSET 3.37035 -0.52449 3.41376
                  CHANNELS 3 Zrotation Xrotation Yrotation
                  End Site
                  {
                    OFFSET 1.78271 -1.18214 1.43049
                  }
                }
              }
              JOINT lIndex1
              {
                OFFSET 7.75947 0.938293 5.60832
                CHANNELS 3 Zrotation Xrotation Yrotation
                JOINT lIndex2
                {
                  OFFSET 2.54057 -0.884171 1.56538
                  CHANNELS 3 Zrotation Xrotation Yrotation
                  End Site
                  {
                    OFFSET 1.62519 -0.234802 1.16502
                  }
                }
              }
              JOINT lMid1
              {
                OFFSET 8.24714 1.18213 3.41376
                CHANNELS 3 Zrotation Xrotation Yrotation
                JOINT lMid2
                {
                  OFFSET 3.10165 -0.590103 1.0647
                  CHANNELS 3 Zrotation Xrotation Yrotation
                  End Site
                  {
                    OFFSET 2.48547 -0.328903 0.83742
                  }
                }
              }
              JOINT lRing1
              {
                OFFSET 8.82822 0.546677 1.51678
                CHANNELS 3 Zrotation Xrotation Yrotation
                JOINT lRing2
                {
                  OFFSET 2.60934 -0.819778 -0.0198488
                  CHANNELS 3 Zrotation Xrotation Yrotation
                  End Site
                  {
                    OFFSET 2.33842 -0.294052 0.168128
                  }
                }
              }
              JOINT lPinky1
              {
                OFFSET 8.27202 -0.0477905 -0.4584
                CHANNELS 3 Zrotation Xrotation Yrotation
                JOINT lPinky2
                {
                  OFFSET 1.82734 -0.647385 -0.700984
                  CHANNELS 3 Zrotation Xrotation Yrotation
                  End Site
                  {
                    OFFSET 1.69225 -0.51767 -0.607171
                  }
                }
              }
            }
          }
        }
      }
    }
  }
  JOINT rButtock
  {
    OFFSET -8.77824 4.35084 1.2192
    CHANNELS 3 Zrotation Xrotation Yrotation
    JOINT rThigh
    {
      OFFSET 0 -1.70687 -2.19456
      CHANNELS 3 Zrotation Xrotation Yrotation
      JOINT rShin
      {
        OFFSET 0 -36.8199 0.73152
        CHANNELS 3 Zrotation Xrotation Yrotation
        JOINT rFoot
        {
          OFFSET 0.73152 -45.1104 -5.12064
          CHANNELS 3 Zrotation Xrotation Yrotation
          End Site
          {
            OFFSET -1.1221 -3.69964 12.103
          }
        }
      }
    }
  }
  JOINT lButtock
  {
    OFFSET 8.77824 4.35084 1.2192
    CHANNELS 3 Zrotation Xrotation Yrotation
    JOINT lThigh
    {
      OFFSET 0 -1.70687 -2.19456
      CHANNELS 3 Zrotation Xrotation Yrotation
      JOINT lShin
      {
        OFFSET 0 -36.8199 0.73152
        CHANNELS 3 Zrotation Xrotation Yrotation
        JOINT lFoot
        {
          OFFSET -0.73152 -45.1104 -5.12064
          CHANNELS 3 Zrotation Xrotation Yrotation
          End Site
          {
            OFFSET 1.1221 -3.69964 12.103
          }
        }
      }
    }
  }
}
MOTION
Frames:	5
Frame Time:	0.03333
-0.04368999972939491 57.53020095825195 0.2329999953508377 0.7297999877482653 -9.055499732494354 358.11500787734985 -7.040879800915718 18.807000517845154 4.349740035831928 1.587080005556345 -14.179700464010239 1.089629977941513 -1.9637800008058548 10.4315996915102 -0.31317300628870726 4.988869875669479 -16.95889949798584 0.31484699808061123 0.0 0.0 0.0 0.0 0.0 0.0 0.0 0.0 0.0 20.415199398994446 36.35980010032654 57.26670205593109 -25.61389982700348 -47.539000511169434 97.9475998878479 -4.245400093495846 -49.454602003097534 -9.368439763784409 -1.0199840971836238e-10 -2.5579538487363607e-11 2.864908310584724e-10 -1.8001600210482138e-10 -5.1159076974727213e-11 4.808953235624358e-10 -1.0199840971836238e-10 -2.5579538487363607e-11 2.864908310584724e-10 7.7309102565050125 5.474880114197731 0.41731400415301323 -1.0199840971836238e-10 -2.5579538487363607e-11 2.864908310584724e-10 2.905540131032467 0.9651830233633518 0.102901995414868 -1.0199840971836238e-10 -2.5579538487363607e-11 2.864908310584724e-10 10.27859978377819 0.7318009994924068 0.025912300043273717 -1.0199840971836238e-10 -2.5579538487363607e-11 2.864908310584724e-10 2.221670038998127 -0.733487019315362 -0.2089200052432716 0.0 0.0 0.0 -37.789500653743744 26.752999126911163 -63.18979740142822 26.9733989238739 -25.07120043039322 -60.3354012966156 0.5545470071956515 -5.810989737510681 0.465532997623086 -2.2669865984425996e-10 -5.704237082682084e-10 3.888089850079268e-10 -3.948841253986757e-10 -9.490008778811898e-10 6.548361852765083e-10 -2.2669865984425996e-10 -5.704237082682084e-10 3.888089850079268e-10 -7.7309102565050125 5.474880114197731 -0.41731400415301323 -2.2669865984425996e-10 -5.704237082682084e-10 3.888089850079268e-10 -2.905540131032467 0.9651830233633518 -0.102901995414868 -2.2669865984425996e-10 -5.704237082682084e-10 3.888089850079268e-10 -10.27859978377819 0.7318009994924068 -0.025912300043273717 -2.2669865984425996e-10 -5.704237082682084e-10 3.888089850079268e-10 -2.221670038998127 -0.733487019315362 0.2089200052432716 0.0 0.0 0.0 -36.73370003700256 -57.587199211120605 -18.514899909496307 -76.94039940834045 88.96129846572876 77.7817976474762 -7.671919763088226 -30.0339013338089 -11.381999552249908 0.0 0.0 0.0 50.12340009212494 -39.04399931430817 45.83199977874756 156.9729995727539 87.4483984708786 -158.37299466133118 10.006999969482422 -21.337600350379944 17.876799702644348
0.013939999043941498 57.543399810791016 0.3279999941587448 -0.6443000072613358 -6.778799816966057 357.37800121307373 -6.123159974813461 19.762699753046036 1.2228399608284235 2.734079919755459 -14.68159943819046 0.3759589930996299 -1.8667599745094776 9.583170041441917 0.2735939947888255 5.572830028831959 -15.55590033531189 1.5044699795544147 0.0 0.0 0.0 0.0 0.0 0.0 0.0 0.0 0.0 29.869999587535858 48.73130142688751 44.93440121412277 -22.816200256347656 -50.44220209121704 106.82899475097656 -7.7972399443387985 -59.06980097293854 -13.627299517393112 -7.178257988016412e-10 -5.908873390580993e-10 -9.208633855450898e-11 -1.2322942666287418e-09 -9.208633855450898e-10 -1.944044925039634e-10 -7.178257988016412e-10 -5.908873390580993e-10 -9.208633855450898e-11 7.7309102565050125 5.474880114197731 0.41731400415301323 -7.178257988016412e-10 -5.908873390580993e-10 -9.208633855450898e-11 2.905540131032467 0.9651830233633518 0.102901995414868 -7.178257988016412e-10 -5.908873390580993e-10 -9.208633855450898e-11 10.27859978377819 0.7318009994924068 0.025912300043273717 -7.178257988016412e-10 -5.908873390580993e-10 -9.208633855450898e-11 2.221670038998127 -0.733487019315362 -0.2089200052432716 0.0 0.0 0.0 -51.13289773464203 15.668799877166748 -68.39909791946411 22.45930016040802 -17.920099943876266 -42.301499247550964 -0.6035080086439848 22.842499315738678 -2.544330060482025 -7.280576141965867e-10 5.333333774615312e-09 -3.069544618483633e-11 -1.2524381531875406e-09 9.101199793803971e-09 -1.0231815394945443e-11 -7.280576141965867e-10 5.333333774615312e-09 -3.069544618483633e-11 -7.7309102565050125 5.474880114197731 -0.41731400415301323 -7.280576141965867e-10 5.333333774615312e-09 -3.069544618483633e-11 -2.905540131032467 0.9651830233633518 -0.102901995414868 -7.280576141965867e-10 5.333333774615312e-09 -3.069544618483633e-11 -10.27859978377819 0.7318009994924068 -0.025912300043273717 -7.280576141965867e-10 5.333333774615312e-09 -3.069544618483633e-11 -2.221670038998127 -0.733487019315362 0.2089200052432716 0.0 0.0 0.0 -39.03540015220642 -54.756497740745544 -22.876099348068237 -69.4025981426239 88.92830193042755 70.32060027122498 -8.733979985117912 -30.123500525951385 -12.938500195741653 0.0 0.0 0.0 50.951199531555176 -40.3319987654686 44.66859966516495 159.7820019721985 87.0671010017395 -161.10999584197998 9.561560153961182 -21.287700533866882 17.14700013399124
-0.010160000994801521 57.413299560546875 0.3739999942481518 -1.5331000462174416 -4.322300031781197 357.039999961853 -5.766770169138908 20.9471994638443 -0.6882309867069125 4.084110148251057 -14.890599846839905 0.010802799806697294 -2.136409990489483 7.804520130157471 0.4198409803211689 6.566830202937126 -14.043099582195282 1.953400019556284 0.0 0.0 0.0 0.0 0.0 0.0 0.0 0.0 0.0 51.21670067310333 57.62699782848358 17.738299816846848 -20.981299728155136 -52.355700731277466 111.79700374603271 -11.01200021803379 -64.69260156154633 -17.29540005326271 -1.191686749280052e-09 -1.0308554010407533e-09 4.092726157978177e-11 -2.048921032837825e-09 -1.488729139964562e-09 0.0 -1.191686749280052e-09 -1.0308554010407533e-09 4.092726157978177e-11 7.7309102565050125 5.474880114197731 0.41731400415301323 -1.191686749280052e-09 -1.0308554010407533e-09 4.092726157978177e-11 2.905540131032467 0.9651830233633518 0.102901995414868 -1.191686749280052e-09 -1.0308554010407533e-09 4.092726157978177e-11 10.27859978377819 0.7318009994924068 0.025912300043273717 -1.191686749280052e-09 -1.0308554010407533e-09 4.092726157978177e-11 2.221670038998127 -0.733487019315362 -0.2089200052432716 0.0 0.0 0.0 -81.38860166072845 4.873040020465851 -76.14220082759857 11.060800328850746 -6.591959819197655 -16.09419956803322 13.912399560213089 71.33929789066315 -21.25770002603531 -1.9338131096446887e-09 1.867562104962417e-08 -4.706635081674904e-10 -3.320543839890888e-09 3.183885155522148e-08 -6.650680006714538e-10 -1.9338131096446887e-09 1.867562104962417e-08 -4.706635081674904e-10 -7.7309102565050125 5.474880114197731 -0.41731400415301323 -1.9338131096446887e-09 1.867562104962417e-08 -4.706635081674904e-10 -2.905540131032467 0.9651830233633518 -0.102901995414868 -1.9338131096446887e-09 1.867562104962417e-08 -4.706635081674904e-10 -10.27859978377819 0.7318009994924068 -0.025912300043273717 -1.9338131096446887e-09 1.867562104962417e-08 -4.706635081674904e-10 -2.221670038998127 -0.733487019315362 0.2089200052432716 0.0 0.0 0.0 -41.87680095434189 -51.91940188407898 -27.33739882707596 -68.76689851284027 88.92759919166565 69.7385984659195 -9.324489757418633 -30.0884011387825 -13.78970056772232 0.0 0.0 0.0 51.1465984582901 -42.19880014657974 43.37920010089874 162.1910011768341 86.63559794425964 -163.45899939537048 9.268970042467117 -21.20039999485016 16.714000403881073
-0.27513000555336475 57.1348991394043 0.28999999538064003 -2.321399934589863 -2.348499968647957 357.5170040130615 -4.380970001220703 21.407500058412552 -2.906450070440769 5.401060022413731 -14.905799925327301 -0.38451301865279675 -2.3654000647366047 7.444900274276733 1.0765899997204542 5.976140052080154 -15.705099552869797 3.2517100498080254 0.0 0.0 0.0 0.0 0.0 0.0 0.0 0.0 0.0 77.99670159816742 57.38510012626648 -12.933599799871445 -22.01759934425354 -51.875102519989014 109.07799482345581 -12.438800632953644 -66.42850041389465 -18.859999626874924 -7.005596103226708e-10 -2.580975433374988e-09 1.0231815394945443e-10 -1.2073542166035622e-09 -4.082494342583232e-09 1.3301360013429075e-10 -7.005596103226708e-10 -2.580975433374988e-09 1.0231815394945443e-10 7.7309102565050125 5.474880114197731 0.41731400415301323 -7.008793545537628e-10 -2.580975433374988e-09 1.0231815394945443e-10 2.905540131032467 0.9651830233633518 0.102901995414868 -7.005596103226708e-10 -2.580975433374988e-09 1.0231815394945443e-10 10.27859978377819 0.7318009994924068 0.025912300043273717 -7.008793545537628e-10 -2.580975433374988e-09 1.0231815394945443e-10 2.221670038998127 -0.733487019315362 -0.2089200052432716 0.0 0.0 0.0 -106.4810049533844 0.5119090201333165 -81.35590016841888 1.793839931488037 0.680763004347682 -5.429519936442375 142.37900376319885 72.82599806785583 -151.0539972782135 -1.6716228401492117e-09 1.4938450476620346e-08 -2.0463630789890885e-10 -2.849880331723398e-09 2.533909082558239e-08 -2.353317540837452e-10 -1.6716228401492117e-09 1.4938450476620346e-08 -2.0463630789890885e-10 -7.7309102565050125 5.474880114197731 -0.41731400415301323 -1.6716228401492117e-09 1.4938450476620346e-08 -2.0463630789890885e-10 -2.905540131032467 0.9651830233633518 -0.102901995414868 -1.6716228401492117e-09 1.4938450476620346e-08 -2.0463630789890885e-10 -10.27859978377819 0.7318009994924068 -0.025912300043273717 -1.6716228401492117e-09 1.4938450476620346e-08 -2.0463630789890885e-10 -2.221670038998127 -0.733487019315362 0.2089200052432716 0.0 0.0 0.0 -43.40140074491501 -50.57249844074249 -30.739799737930298 -85.03200173377991 88.99419844150543 86.03800177574158 -9.539920091629028 -30.091099441051483 -14.083199948072433 0.0 0.0 0.0 52.99700081348419 -44.062398970127106 43.70539963245392 164.7599995136261 86.01350247859955 -165.97200393676758 8.869829848408699 -21.284599900245667 15.974900275468826
-0.5999700147658587 56.635398864746094 0.3129999954253435 -3.6152999103069305 -0.9742000233381987 358.7839937210083 -2.046130020171404 21.13280028104782 -5.402599945664406 6.6890497505664825 -14.727100431919098 -0.808934960514307 -2.5933499448001385 8.501250073313713 2.249170057475567 4.110349863767624 -20.508899688720703 5.504809878766537 0.0 0.0 0.0 0.0 0.0 0.0 0.0 0.0 0.0 96.76840424537659 50.355201959609985 -34.501799046993256 -25.07830023765564 -48.25250029563904 99.83049988746643 -10.902499705553055 -64.37340259552002 -17.165700495243073 7.552358738394105e-10 -5.23613152836333e-09 9.208633855450898e-11 1.2924061820740462e-09 -8.702158993401099e-09 1.944044925039634e-10 7.552358738394105e-10 -5.23613152836333e-09 9.208633855450898e-11 7.7309102565050125 5.474880114197731 0.41731400415301323 7.552358738394105e-10 -5.23613152836333e-09 9.208633855450898e-11 2.905540131032467 0.9651830233633518 0.102901995414868 7.552358738394105e-10 -5.23613152836333e-09 9.208633855450898e-11 10.27859978377819 0.7318009994924068 0.025912300043273717 7.552358738394105e-10 -5.23613152836333e-09 9.208633855450898e-11 2.221670038998127 -0.733487019315362 -0.2089200052432716 0.0 0.0 0.0 -124.94699478149414 -1.6395899467170238 -81.740802526474 4.274369962513447 -0.9796739928424358 -8.153910040855408 156.4400017261505 58.61049950122833 -166.45299911499023 5.851319428984425e-11 -5.878177944396157e-09 7.673861546209082e-10 1.5859313862165436e-10 -1.0400640348962042e-08 1.2585132935782894e-09 5.851319428984425e-11 -5.878177944396157e-09 7.673861546209082e-10 -7.7309102565050125 5.474880114197731 -0.41731400415301323 5.851319428984425e-11 -5.878177944396157e-09 7.673861546209082e-10 -2.905540131032467 0.9651830233633518 -0.102901995414868 5.851319428984425e-11 -5.878177944396157e-09 7.673861546209082e-10 -10.27859978377819 0.7318009994924068 -0.025912300043273717 5.851319428984425e-11 -5.878177944396157e-09 7.673861546209082e-10 -2.221670038998127 -0.733487019315362 0.2089200052432716 0.0 0.0 0.0 -44.11619871854782 -50.734498500823975 -33.47290098667145 -117.53199577331543 88.86020064353943 118.55299472808838 -9.380120113492012 -30.135599970817566 -13.81919950246811 0.0 0.0 0.0 56.70469880104065 -45.85759878158569 45.809597969055176 167.1269953250885 85.19769787788391 -168.28500151634216 8.356670290231705 -21.537699848413467 14.926699697971344
